Exact Audio Copy V0.99 prebeta 1 from 25. May 2007

EAC 抓取日志文件从26. 三月 2011, 22:06

群星 / 三、四十年代歌坛名人1

使用驱动器  ：PIONEER DVD-RW  DVR-115   Adapter: 0  ID: 0

读取模式     : 保护
使用精确流   : 是
废除音频缓冲 : 是
使用 C2 指针 : 否

读取偏移校正                   : 48
读取 Lead-In 和 Lead-Out       : 否
用静音填充抓取中丢失偏移的采样 : 是
去除首尾静音块                 : 否
已用接口                       : Win NT 及 2000 本地 Win32 接口

所用输出格式 : 内部 WAV 函数
样本格式     : 44.100 Hz;16 Bit;立体声
使用压缩偏移 : 48


被抓轨 CD 的 TOC

     音轨 |   开始   |   长度   | 起始扇区 | 结尾扇区 
    --------------------------------------------------
       1  |  0:00.00 |  2:41.47 |       0  |   12121  
       2  |  2:41.47 |  3:11.60 |   12122  |   26506  
       3  |  5:53.32 |  3:19.55 |   26507  |   41486  
       4  |  9:13.12 |  2:53.38 |   41487  |   54499  
       5  | 12:06.50 |  3:00.45 |   54500  |   68044  
       6  | 15:07.20 |  3:04.45 |   68045  |   81889  
       7  | 18:11.65 |  2:39.42 |   81890  |   93856  
       8  | 20:51.32 |  2:27.00 |   93857  |  104881  
       9  | 23:18.32 |  3:19.68 |  104882  |  119874  
      10  | 26:38.25 |  2:49.35 |  119875  |  132584  
      11  | 29:27.60 |  2:55.12 |  132585  |  145721  
      12  | 32:22.72 |  3:00.23 |  145722  |  159244  
      13  | 35:23.20 |  2:42.30 |  159245  |  171424  
      14  | 38:05.50 |  2:47.22 |  171425  |  183971  
      15  | 40:52.72 |  3:02.18 |  183972  |  197639  
      16  | 43:55.15 |  2:38.65 |  197640  |  209554  
      17  | 46:34.05 |  2:36.37 |  209555  |  221291  


范围状态及错误

已选择范围

     文件名 E:\20世纪中华歌坛名人百集珍藏版-三、四十年代歌坛名人1[lwg188原创]\群星 - 三、四十年代歌坛名人1.wav

     峰值电平 90.2 %
     范围质量 100.0 %
     复制 CRC EF570E1B
     复制成功

没有错误发生

状态报告结尾
